<svg width="74" height="72" viewBox="0 0 74 72" fill="none" xmlns="http://www.w3.org/2000/svg">
<path fill="currentColor" fill-rule="evenodd" clip-rule="evenodd" d="M43.5 21.75V27.5H38.9875H34.475L34.6125 35.625L34.75 43.75L39.125 43.8945L43.5 44.039V50.0195C43.5 56.737 43.7045 57.039 46.7055 54.75C47.607 54.0625 48.5805 53.5 48.8685 53.5C49.157 53.5 49.516 53.1795 49.6665 52.788C49.8165 52.396 50.7405 51.6955 51.72 51.231C52.699 50.766 53.5 50.181 53.5 49.9305C53.5 49.68 54.0065 49.2565 54.625 48.989C56.09 48.3555 57.3445 47.5135 58.892 46.125C59.5815 45.5065 60.438 45 60.7945 45C61.1515 45 61.7375 44.591 62.0965 44.0915C62.456 43.592 63.7625 42.636 65 41.9665C66.2375 41.2975 67.5225 40.3875 67.855 39.944C68.188 39.5005 69.114 38.867 69.913 38.536C70.7125 38.205 71.6445 37.4145 71.984 36.7795C72.5185 35.781 72.448 35.448 71.461 34.3125C70.833 33.5905 70.065 33 69.754 33C69.443 33 68.744 32.6065 68.2005 32.125C66.5245 30.641 64.067 29 63.52 29C63.234 29 63 28.7795 63 28.51C63 28.241 62.112 27.5675 61.027 27.0135C59.9415 26.46 58.873 25.724 58.652 25.3785C58.431 25.033 57.7435 24.469 57.125 24.125C56.506 23.7815 55.4965 23.219 54.881 22.875C54.2655 22.5315 53.4655 21.856 53.1025 21.375C52.74 20.894 52.142 20.5 51.774 20.5C51.406 20.5 50.575 19.9415 49.9275 19.2585C49.28 18.576 48.5605 18.0135 48.329 18.0085C48.097 18.004 47.3355 17.55 46.6365 17C45.937 16.45 44.9455 16 44.4325 16C43.5765 16 43.5 16.472 43.5 21.75ZM2.5 35.75V44H7.5H12.5V35.75V27.5H7.5H2.5V35.75ZM18.5 35.75V44H23.5H28.5V35.75V27.5H23.5H18.5V35.75Z"/>
</svg>
